<svg width="400" height="400" viewBox="0 0 400 400" fill="none" xmlns="http://www.w3.org/2000/svg">
<rect width="400" height="400" rx="50" fill="#D4A574"/>
<path d="M297.217 227.348C293.827 221.755 283.49 216.371 275.44 217.216C275.44 216.794 275.44 216.125 275.44 215.703C275.44 212.044 270.78 211.165 268.195 212.677C267.941 212.466 267.687 212.255 267.433 212.044C242.817 201.067 213.753 198.464 186.257 198.042C165.793 197.62 124.824 196.74 109.233 210.742C107.665 210.109 106.14 209.229 104.572 208.596C101.988 207.294 98.8528 210.32 100.42 212.044C100.166 212.255 100.166 212.677 100.166 213.135C97.5818 254.473 136.729 283.532 184.181 286.769C214.262 288.704 240.445 278.361 257.053 260.699C260.145 267.173 270.525 266.716 277.262 264.358C285.82 261.333 292.811 255.317 296.708 248.421C300.606 241.772 301.369 234.032 297.217 227.348ZM139.864 209.476C153.083 207.119 166.81 206.45 180.325 206.239C204.178 205.817 230.361 207.541 252.943 215.281C214.05 228.403 159.353 228.615 119.655 214.648C126.603 213.135 133.086 210.778 139.864 209.476ZM187.57 278.185C143.508 277.974 111.86 250.427 106.394 215.527C149.185 239.415 220.744 237.691 265.357 219.819C259.637 254.473 231.886 278.607 187.57 278.185ZM287.388 245.431C284.549 250.181 280.143 254.262 274.677 256.83C268.958 259.644 264.043 257.463 258.324 258.764C266.882 249.09 272.601 237.445 274.381 224.533C279.295 226.468 285.015 226.68 288.362 231.218C291.794 235.756 289.972 241.35 287.388 245.431Z" fill="#8B5E3C"/>
<path d="M152.533 183.442C142.661 179.783 135.925 176.335 135.925 166.66C135.925 160.644 138.001 154.804 138.763 148.999C140.077 138.234 130.714 128.313 116.987 130.283C113.343 130.705 113.343 135.032 115.97 136.51C122.706 139.958 128.934 139.746 128.934 147.697C128.934 153.502 126.858 159.554 126.35 165.358C125.333 178.059 135.671 186.467 150.203 188.402C153.338 188.825 155.922 184.744 152.533 183.442Z" fill="#8B5E3C"/>
<path d="M202.611 156.528C207.017 151.778 210.11 147.064 210.11 140.802C209.855 121.417 171.725 113.044 193.502 94.0811C197.908 90.2112 190.917 84.4063 186.257 88.2762C178.758 94.0811 170.454 102.278 175.114 111.32C181.088 122.508 202.865 130.916 199.221 144.918C196.891 154.171 180.792 160.433 181.597 170.53C182.105 179.572 191.977 182.14 201.806 182.14C203.373 182.14 203.882 180.416 202.569 179.783C187.274 171.796 193.502 166.414 202.611 156.528Z" fill="#8B5E3C"/>
<path d="M273.364 105.938C263.238 113.677 258.069 121.875 263.238 133.062C265.568 138.023 273.11 147.275 265.568 152.025C260.908 155.051 253.367 155.684 247.944 156.774C241.97 158.076 229.81 159.8 227.734 166.027C225.404 173.978 234.98 179.607 242.521 182.597C245.105 183.688 247.689 181.085 245.613 179.15C243.792 177.426 232.903 169.686 237.818 167.294C241.462 165.359 246.376 164.936 250.528 164.057C257.773 162.544 266.077 161.7 272.305 157.83C277.77 154.593 279.55 147.064 278.279 141.893C274.635 128.981 266.077 123.387 280.355 111.32C284.252 107.872 277.771 102.489 273.364 105.938Z" fill="#8B5E3C"/>
<path d="M89.78 76.66C85.22 76.66 81.32 75.76 78.08 73.96C74.84 72.16 72.34 69.64 70.58 66.4C68.86 63.12 68 59.26 68 54.82C68 51.5 68.48 48.52 69.44 45.88C70.44 43.2 71.88 40.92 73.76 39.04C75.64 37.12 77.92 35.64 80.6 34.6C83.32 33.56 86.38 33.04 89.78 33.04C91.78 33.04 93.8 33.3 95.84 33.82C97.92 34.3 99.72 35 101.24 35.92C102.24 36.48 102.92 37.18 103.28 38.02C103.64 38.86 103.74 39.7 103.58 40.54C103.46 41.38 103.12 42.1 102.56 42.7C102.04 43.3 101.38 43.68 100.58 43.84C99.78 44 98.88 43.82 97.88 43.3C96.68 42.58 95.42 42.06 94.1 41.74C92.78 41.42 91.44 41.26 90.08 41.26C87.4 41.26 85.14 41.8 83.3 42.88C81.5 43.92 80.14 45.44 79.22 47.44C78.3 49.44 77.84 51.9 77.84 54.82C77.84 57.7 78.3 60.16 79.22 62.2C80.14 64.24 81.5 65.8 83.3 66.88C85.14 67.92 87.4 68.44 90.08 68.44C91.36 68.44 92.66 68.28 93.98 67.96C95.34 67.64 96.64 67.14 97.88 66.46C98.92 65.94 99.84 65.76 100.64 65.92C101.48 66.04 102.16 66.4 102.68 67C103.24 67.56 103.58 68.24 103.7 69.04C103.86 69.84 103.78 70.64 103.46 71.44C103.14 72.24 102.54 72.92 101.66 73.48C100.18 74.48 98.36 75.26 96.2 75.82C94.04 76.38 91.9 76.66 89.78 76.66ZM110.714 76.54C109.594 76.54 108.674 76.28 107.954 75.76C107.274 75.24 106.834 74.54 106.634 73.66C106.474 72.78 106.654 71.8 107.174 70.72L122.534 37.06C123.174 35.7 123.934 34.72 124.814 34.12C125.694 33.48 126.714 33.16 127.874 33.16C129.034 33.16 130.054 33.48 130.934 34.12C131.814 34.72 132.554 35.7 133.154 37.06L148.634 70.72C149.154 71.8 149.334 72.8 149.174 73.72C149.054 74.6 148.654 75.3 147.974 75.82C147.294 76.3 146.414 76.54 145.334 76.54C143.974 76.54 142.914 76.22 142.154 75.58C141.434 74.94 140.794 73.94 140.234 72.58L136.634 64.24L140.354 66.82H115.334L119.054 64.24L115.514 72.58C114.914 73.98 114.274 75 113.594 75.64C112.954 76.24 111.994 76.54 110.714 76.54ZM127.754 43.6L120.074 61.9L118.454 59.56H137.234L135.614 61.9L127.874 43.6H127.754ZM159.01 76.54C157.65 76.54 156.61 76.16 155.89 75.4C155.17 74.64 154.81 73.58 154.81 72.22V37.48C154.81 36.12 155.19 35.06 155.95 34.3C156.75 33.54 157.83 33.16 159.19 33.16C160.39 33.16 161.33 33.4 162.01 33.88C162.73 34.32 163.39 35.1 163.99 36.22L177.85 61.54H175.81L189.67 36.22C190.27 35.1 190.91 34.32 191.59 33.88C192.31 33.4 193.25 33.16 194.41 33.16C195.77 33.16 196.81 33.54 197.53 34.3C198.29 35.06 198.67 36.12 198.67 37.48V72.22C198.67 73.58 198.31 74.64 197.59 75.4C196.87 76.16 195.83 76.54 194.47 76.54C193.11 76.54 192.05 76.16 191.29 75.4C190.57 74.64 190.21 73.58 190.21 72.22V47.92H191.53L180.37 67.9C179.89 68.66 179.37 69.24 178.81 69.64C178.29 70 177.59 70.18 176.71 70.18C175.83 70.18 175.11 69.98 174.55 69.58C173.99 69.18 173.49 68.62 173.05 67.9L161.77 47.86H163.21V72.22C163.21 73.58 162.85 74.64 162.13 75.4C161.45 76.16 160.41 76.54 159.01 76.54ZM208.448 76.54C207.328 76.54 206.408 76.28 205.688 75.76C205.008 75.24 204.568 74.54 204.368 73.66C204.208 72.78 204.388 71.8 204.908 70.72L220.268 37.06C220.908 35.7 221.668 34.72 222.548 34.12C223.428 33.48 224.448 33.16 225.608 33.16C226.768 33.16 227.788 33.48 228.668 34.12C229.548 34.72 230.288 35.7 230.888 37.06L246.368 70.72C246.888 71.8 247.068 72.8 246.908 73.72C246.788 74.6 246.388 75.3 245.708 75.82C245.028 76.3 244.148 76.54 243.068 76.54C241.708 76.54 240.648 76.22 239.888 75.58C239.168 74.94 238.528 73.94 237.968 72.58L234.368 64.24L238.088 66.82H213.068L216.788 64.24L213.248 72.58C212.648 73.98 212.008 75 211.328 75.64C210.688 76.24 209.728 76.54 208.448 76.54ZM225.488 43.6L217.808 61.9L216.188 59.56H234.968L233.348 61.9L225.608 43.6H225.488ZM257.104 76.54C255.584 76.54 254.424 76.12 253.624 75.28C252.824 74.44 252.424 73.26 252.424 71.74V38.44C252.424 36.88 252.824 35.7 253.624 34.9C254.464 34.1 255.644 33.7 257.164 33.7H271.744C276.464 33.7 280.104 34.84 282.664 37.12C285.224 39.4 286.504 42.58 286.504 46.66C286.504 49.3 285.924 51.58 284.764 53.5C283.604 55.42 281.924 56.9 279.724 57.94C277.564 58.98 274.904 59.5 271.744 59.5L272.224 58.48H274.684C276.364 58.48 277.824 58.9 279.064 59.74C280.344 60.54 281.444 61.78 282.364 63.46L286.084 70.36C286.644 71.36 286.904 72.34 286.864 73.3C286.824 74.26 286.464 75.04 285.784 75.64C285.104 76.24 284.104 76.54 282.784 76.54C281.464 76.54 280.384 76.26 279.544 75.7C278.744 75.14 278.024 74.28 277.384 73.12L271.624 62.5C271.024 61.38 270.284 60.62 269.404 60.22C268.564 59.82 267.524 59.62 266.284 59.62H261.724V71.74C261.724 73.26 261.324 74.44 260.524 75.28C259.764 76.12 258.624 76.54 257.104 76.54ZM261.724 52.9H270.064C272.544 52.9 274.404 52.4 275.644 51.4C276.924 50.4 277.564 48.9 277.564 46.9C277.564 44.94 276.924 43.46 275.644 42.46C274.404 41.46 272.544 40.96 270.064 40.96H261.724V52.9ZM294.581 76.54C293.461 76.54 292.541 76.28 291.821 75.76C291.141 75.24 290.701 74.54 290.501 73.66C290.341 72.78 290.521 71.8 291.041 70.72L306.401 37.06C307.041 35.7 307.801 34.72 308.681 34.12C309.561 33.48 310.581 33.16 311.741 33.16C312.901 33.16 313.921 33.48 314.801 34.12C315.681 34.72 316.421 35.7 317.021 37.06L332.501 70.72C333.021 71.8 333.201 72.8 333.041 73.72C332.921 74.6 332.521 75.3 331.841 75.82C331.161 76.3 330.281 76.54 329.201 76.54C327.841 76.54 326.781 76.22 326.021 75.58C325.301 74.94 324.661 73.94 324.101 72.58L320.501 64.24L324.221 66.82H299.201L302.921 64.24L299.381 72.58C298.781 73.98 298.141 75 297.461 75.64C296.821 76.24 295.861 76.54 294.581 76.54ZM311.621 43.6L303.941 61.9L302.321 59.56H321.101L319.481 61.9L311.741 43.6H311.621Z" fill="black"/>
<path d="M91.2 320.4C88.2667 320.4 85.7467 319.813 83.64 318.64C81.56 317.44 79.96 315.76 78.84 313.6C77.72 311.413 77.16 308.84 77.16 305.88C77.16 303.667 77.48 301.68 78.12 299.92C78.76 298.133 79.68 296.613 80.88 295.36C82.08 294.08 83.5467 293.107 85.28 292.44C87.04 291.747 89.0133 291.4 91.2 291.4C92.6667 291.4 94.1067 291.587 95.52 291.96C96.9333 292.333 98.1733 292.867 99.24 293.56C99.8 293.907 100.173 294.333 100.36 294.84C100.547 295.32 100.587 295.8 100.48 296.28C100.373 296.733 100.147 297.12 99.8 297.44C99.48 297.76 99.0667 297.947 98.56 298C98.08 298.027 97.5467 297.853 96.96 297.48C96.1333 296.947 95.24 296.56 94.28 296.32C93.32 296.08 92.3467 295.96 91.36 295.96C89.4667 295.96 87.8667 296.347 86.56 297.12C85.2533 297.893 84.2667 299.013 83.6 300.48C82.9333 301.947 82.6 303.747 82.6 305.88C82.6 307.987 82.9333 309.787 83.6 311.28C84.2667 312.773 85.2533 313.907 86.56 314.68C87.8667 315.453 89.4667 315.84 91.36 315.84C92.3733 315.84 93.3733 315.72 94.36 315.48C95.3467 315.213 96.28 314.813 97.16 314.28C97.7467 313.933 98.2667 313.787 98.72 313.84C99.2 313.867 99.6 314.027 99.92 314.32C100.24 314.613 100.453 314.987 100.56 315.44C100.667 315.867 100.64 316.32 100.48 316.8C100.32 317.253 100 317.653 99.52 318C98.4533 318.773 97.1733 319.373 95.68 319.8C94.2133 320.2 92.72 320.4 91.2 320.4ZM104.962 320.32C104.322 320.32 103.802 320.173 103.402 319.88C103.028 319.587 102.802 319.2 102.722 318.72C102.642 318.213 102.735 317.653 103.002 317.04L113.562 293.64C113.908 292.867 114.322 292.32 114.802 292C115.308 291.653 115.882 291.48 116.522 291.48C117.135 291.48 117.682 291.653 118.162 292C118.668 292.32 119.095 292.867 119.442 293.64L130.042 317.04C130.335 317.653 130.442 318.213 130.362 318.72C130.282 319.227 130.055 319.627 129.682 319.92C129.308 320.187 128.815 320.32 128.202 320.32C127.455 320.32 126.868 320.147 126.442 319.8C126.042 319.427 125.682 318.867 125.362 318.12L122.762 312.08L124.922 313.48H108.042L110.202 312.08L107.642 318.12C107.295 318.893 106.935 319.453 106.562 319.8C106.188 320.147 105.655 320.32 104.962 320.32ZM116.442 297.36L110.842 310.68L109.802 309.4H123.162L122.162 310.68L116.522 297.36H116.442ZM137.087 320.32C136.261 320.32 135.607 320.093 135.127 319.64C134.674 319.16 134.447 318.48 134.447 317.6V294.52C134.447 293.64 134.674 292.973 135.127 292.52C135.607 292.04 136.287 291.8 137.167 291.8H151.127C151.821 291.8 152.341 291.973 152.687 292.32C153.034 292.667 153.207 293.16 153.207 293.8C153.207 294.467 153.034 294.987 152.687 295.36C152.341 295.707 151.821 295.88 151.127 295.88H139.567V303.84H150.287C150.954 303.84 151.461 304.013 151.807 304.36C152.181 304.707 152.367 305.2 152.367 305.84C152.367 306.507 152.181 307.027 151.807 307.4C151.461 307.747 150.954 307.92 150.287 307.92H139.567V317.6C139.567 319.413 138.741 320.32 137.087 320.32ZM159.628 320C158.748 320 158.068 319.773 157.588 319.32C157.135 318.84 156.908 318.16 156.908 317.28V294.52C156.908 293.64 157.135 292.973 157.588 292.52C158.068 292.04 158.748 291.8 159.628 291.8H173.908C174.575 291.8 175.081 291.973 175.428 292.32C175.801 292.667 175.988 293.16 175.988 293.8C175.988 294.467 175.801 294.987 175.428 295.36C175.081 295.707 174.575 295.88 173.908 295.88H161.828V303.64H173.028C173.721 303.64 174.241 303.813 174.588 304.16C174.935 304.507 175.108 305.013 175.108 305.68C175.108 306.347 174.935 306.853 174.588 307.2C174.241 307.547 173.721 307.72 173.028 307.72H161.828V315.92H173.908C174.575 315.92 175.081 316.093 175.428 316.44C175.801 316.787 175.988 317.293 175.988 317.96C175.988 318.627 175.801 319.133 175.428 319.48C175.081 319.827 174.575 320 173.908 320H159.628ZM180.548 320.32C179.908 320.32 179.388 320.173 178.988 319.88C178.614 319.587 178.388 319.2 178.308 318.72C178.228 318.213 178.321 317.653 178.588 317.04L189.148 293.64C189.494 292.867 189.908 292.32 190.388 292C190.894 291.653 191.468 291.48 192.108 291.48C192.721 291.48 193.268 291.653 193.748 292C194.254 292.32 194.681 292.867 195.028 293.64L205.628 317.04C205.921 317.653 206.028 318.213 205.948 318.72C205.868 319.227 205.641 319.627 205.268 319.92C204.894 320.187 204.401 320.32 203.788 320.32C203.041 320.32 202.454 320.147 202.028 319.8C201.628 319.427 201.268 318.867 200.948 318.12L198.348 312.08L200.508 313.48H183.628L185.788 312.08L183.228 318.12C182.881 318.893 182.521 319.453 182.148 319.8C181.774 320.147 181.241 320.32 180.548 320.32ZM192.028 297.36L186.428 310.68L185.388 309.4H198.748L197.747 310.68L192.108 297.36H192.028ZM221.558 320.4C219.611 320.4 217.891 320.147 216.398 319.64C214.931 319.133 213.691 318.387 212.678 317.4C211.664 316.387 210.904 315.133 210.398 313.64C209.891 312.147 209.638 310.413 209.638 308.44V294.08C209.638 293.2 209.851 292.547 210.278 292.12C210.731 291.693 211.371 291.48 212.198 291.48C213.024 291.48 213.651 291.693 214.078 292.12C214.531 292.547 214.758 293.2 214.758 294.08V308.4C214.758 310.933 215.331 312.84 216.478 314.12C217.651 315.373 219.344 316 221.558 316C223.771 316 225.451 315.373 226.598 314.12C227.744 312.84 228.318 310.933 228.318 308.4V294.08C228.318 293.2 228.531 292.547 228.958 292.12C229.411 291.693 230.051 291.48 230.878 291.48C231.678 291.48 232.291 291.693 232.718 292.12C233.171 292.547 233.398 293.2 233.398 294.08V308.44C233.398 311.053 232.944 313.253 232.038 315.04C231.158 316.827 229.838 318.173 228.078 319.08C226.318 319.96 224.144 320.4 221.558 320.4ZM239.454 320.32C238.814 320.32 238.294 320.173 237.894 319.88C237.52 319.587 237.294 319.2 237.214 318.72C237.134 318.213 237.227 317.653 237.494 317.04L248.054 293.64C248.4 292.867 248.814 292.32 249.294 292C249.8 291.653 250.374 291.48 251.014 291.48C251.627 291.48 252.174 291.653 252.654 292C253.16 292.32 253.587 292.867 253.934 293.64L264.534 317.04C264.827 317.653 264.934 318.213 264.854 318.72C264.774 319.227 264.547 319.627 264.174 319.92C263.8 320.187 263.307 320.32 262.694 320.32C261.947 320.32 261.36 320.147 260.934 319.8C260.534 319.427 260.174 318.867 259.854 318.12L257.254 312.08L259.414 313.48H242.534L244.694 312.08L242.134 318.12C241.787 318.893 241.427 319.453 241.054 319.8C240.68 320.147 240.147 320.32 239.454 320.32ZM250.934 297.36L245.334 310.68L244.294 309.4H257.654L256.654 310.68L251.014 297.36H250.934ZM289.159 320.32C288.332 320.32 287.692 320.093 287.239 319.64C286.812 319.16 286.599 318.507 286.599 317.68V296.08H278.799C278.105 296.08 277.559 295.893 277.159 295.52C276.785 295.12 276.599 294.587 276.599 293.92C276.599 293.227 276.785 292.707 277.159 292.36C277.559 291.987 278.105 291.8 278.799 291.8H299.519C300.212 291.8 300.745 291.987 301.119 292.36C301.519 292.707 301.719 293.227 301.719 293.92C301.719 294.587 301.519 295.12 301.119 295.52C300.745 295.893 300.212 296.08 299.519 296.08H291.719V317.68C291.719 318.507 291.505 319.16 291.079 319.64C290.652 320.093 290.012 320.32 289.159 320.32ZM301.798 320.32C301.158 320.32 300.638 320.173 300.238 319.88C299.864 319.587 299.638 319.2 299.558 318.72C299.478 318.213 299.571 317.653 299.838 317.04L310.398 293.64C310.744 292.867 311.158 292.32 311.638 292C312.144 291.653 312.718 291.48 313.358 291.48C313.971 291.48 314.518 291.653 314.998 292C315.504 292.32 315.931 292.867 316.278 293.64L326.878 317.04C327.171 317.653 327.278 318.213 327.198 318.72C327.118 319.227 326.891 319.627 326.518 319.92C326.144 320.187 325.651 320.32 325.038 320.32C324.291 320.32 323.704 320.147 323.278 319.8C322.878 319.427 322.518 318.867 322.198 318.12L319.598 312.08L321.758 313.48H304.878L307.038 312.08L304.478 318.12C304.131 318.893 303.771 319.453 303.398 319.8C303.024 320.147 302.491 320.32 301.798 320.32ZM313.278 297.36L307.678 310.68L306.638 309.4H319.998L318.997 310.68L313.358 297.36H313.278Z" fill="black"/>
<path d="M105.067 359.4C102.134 359.4 99.6139 358.813 97.5072 357.64C95.4272 356.44 93.8272 354.76 92.7072 352.6C91.5872 350.413 91.0272 347.84 91.0272 344.88C91.0272 342.667 91.3472 340.68 91.9872 338.92C92.6272 337.133 93.5472 335.613 94.7472 334.36C95.9472 333.08 97.4139 332.107 99.1472 331.44C100.907 330.747 102.881 330.4 105.067 330.4C106.534 330.4 107.974 330.587 109.387 330.96C110.801 331.333 112.041 331.867 113.107 332.56C113.667 332.907 114.041 333.333 114.227 333.84C114.414 334.32 114.454 334.8 114.347 335.28C114.241 335.733 114.014 336.12 113.667 336.44C113.347 336.76 112.934 336.947 112.427 337C111.947 337.027 111.414 336.853 110.827 336.48C110.001 335.947 109.107 335.56 108.147 335.32C107.187 335.08 106.214 334.96 105.227 334.96C103.334 334.96 101.734 335.347 100.427 336.12C99.1205 336.893 98.1339 338.013 97.4672 339.48C96.8005 340.947 96.4672 342.747 96.4672 344.88C96.4672 346.987 96.8005 348.787 97.4672 350.28C98.1339 351.773 99.1205 352.907 100.427 353.68C101.734 354.453 103.334 354.84 105.227 354.84C106.241 354.84 107.241 354.72 108.227 354.48C109.214 354.213 110.147 353.813 111.027 353.28C111.614 352.933 112.134 352.787 112.587 352.84C113.067 352.867 113.467 353.027 113.787 353.32C114.107 353.613 114.321 353.987 114.427 354.44C114.534 354.867 114.507 355.32 114.347 355.8C114.187 356.253 113.867 356.653 113.387 357C112.321 357.773 111.041 358.373 109.547 358.8C108.081 359.2 106.587 359.4 105.067 359.4ZM118.829 359.32C118.189 359.32 117.669 359.173 117.269 358.88C116.895 358.587 116.669 358.2 116.589 357.72C116.509 357.213 116.602 356.653 116.869 356.04L127.429 332.64C127.775 331.867 128.189 331.32 128.669 331C129.175 330.653 129.749 330.48 130.389 330.48C131.002 330.48 131.549 330.653 132.029 331C132.535 331.32 132.962 331.867 133.309 332.64L143.909 356.04C144.202 356.653 144.309 357.213 144.229 357.72C144.149 358.227 143.922 358.627 143.549 358.92C143.175 359.187 142.682 359.32 142.069 359.32C141.322 359.32 140.735 359.147 140.309 358.8C139.909 358.427 139.549 357.867 139.229 357.12L136.629 351.08L138.789 352.48H121.909L124.069 351.08L121.509 357.12C121.162 357.893 120.802 358.453 120.429 358.8C120.055 359.147 119.522 359.32 118.829 359.32ZM130.309 336.36L124.709 349.68L123.669 348.4H137.029L136.029 349.68L130.389 336.36H130.309ZM159.454 359.32C158.814 359.32 158.294 359.173 157.894 358.88C157.52 358.587 157.294 358.2 157.214 357.72C157.134 357.213 157.227 356.653 157.494 356.04L168.054 332.64C168.4 331.867 168.814 331.32 169.294 331C169.8 330.653 170.374 330.48 171.014 330.48C171.627 330.48 172.174 330.653 172.654 331C173.16 331.32 173.587 331.867 173.934 332.64L184.534 356.04C184.827 356.653 184.934 357.213 184.854 357.72C184.774 358.227 184.547 358.627 184.174 358.92C183.8 359.187 183.307 359.32 182.694 359.32C181.947 359.32 181.36 359.147 180.934 358.8C180.534 358.427 180.174 357.867 179.854 357.12L177.254 351.08L179.414 352.48H162.534L164.694 351.08L162.134 357.12C161.787 357.893 161.427 358.453 161.054 358.8C160.68 359.147 160.147 359.32 159.454 359.32ZM170.934 336.36L165.334 349.68L164.294 348.4H177.654L176.654 349.68L171.014 336.36H170.934ZM201.473 359.4C198.54 359.4 196.02 358.813 193.913 357.64C191.833 356.44 190.233 354.76 189.113 352.6C187.993 350.413 187.433 347.84 187.433 344.88C187.433 342.667 187.753 340.68 188.393 338.92C189.033 337.133 189.953 335.613 191.153 334.36C192.353 333.08 193.82 332.107 195.553 331.44C197.313 330.747 199.287 330.4 201.473 330.4C202.94 330.4 204.38 330.587 205.793 330.96C207.207 331.333 208.447 331.867 209.513 332.56C210.073 332.907 210.447 333.333 210.633 333.84C210.82 334.32 210.86 334.8 210.753 335.28C210.647 335.733 210.42 336.12 210.073 336.44C209.753 336.76 209.34 336.947 208.833 337C208.353 337.027 207.82 336.853 207.233 336.48C206.407 335.947 205.513 335.56 204.553 335.32C203.593 335.08 202.62 334.96 201.633 334.96C199.74 334.96 198.14 335.347 196.833 336.12C195.527 336.893 194.54 338.013 193.873 339.48C193.207 340.947 192.873 342.747 192.873 344.88C192.873 346.987 193.207 348.787 193.873 350.28C194.54 351.773 195.527 352.907 196.833 353.68C198.14 354.453 199.74 354.84 201.633 354.84C202.647 354.84 203.647 354.72 204.633 354.48C205.62 354.213 206.553 353.813 207.433 353.28C208.02 352.933 208.54 352.787 208.993 352.84C209.473 352.867 209.873 353.027 210.193 353.32C210.513 353.613 210.727 353.987 210.833 354.44C210.94 354.867 210.913 355.32 210.753 355.8C210.593 356.253 210.273 356.653 209.793 357C208.727 357.773 207.447 358.373 205.953 358.8C204.487 359.2 202.993 359.4 201.473 359.4ZM215.235 359.32C214.595 359.32 214.075 359.173 213.675 358.88C213.302 358.587 213.075 358.2 212.995 357.72C212.915 357.213 213.008 356.653 213.275 356.04L223.835 332.64C224.182 331.867 224.595 331.32 225.075 331C225.582 330.653 226.155 330.48 226.795 330.48C227.408 330.48 227.955 330.653 228.435 331C228.942 331.32 229.368 331.867 229.715 332.64L240.315 356.04C240.608 356.653 240.715 357.213 240.635 357.72C240.555 358.227 240.328 358.627 239.955 358.92C239.582 359.187 239.088 359.32 238.475 359.32C237.728 359.32 237.142 359.147 236.715 358.8C236.315 358.427 235.955 357.867 235.635 357.12L233.035 351.08L235.195 352.48H218.315L220.475 351.08L217.915 357.12C217.568 357.893 217.208 358.453 216.835 358.8C216.462 359.147 215.928 359.32 215.235 359.32ZM226.715 336.36L221.115 349.68L220.075 348.4H233.435L232.435 349.68L226.795 336.36H226.715ZM254.128 359.4C252.955 359.4 251.781 359.307 250.608 359.12C249.435 358.96 248.328 358.707 247.288 358.36C246.248 357.987 245.315 357.533 244.488 357C244.008 356.68 243.675 356.293 243.488 355.84C243.301 355.387 243.235 354.947 243.288 354.52C243.368 354.067 243.541 353.68 243.808 353.36C244.101 353.013 244.461 352.8 244.888 352.72C245.315 352.64 245.781 352.76 246.288 353.08C247.461 353.773 248.701 354.28 250.008 354.6C251.315 354.92 252.688 355.08 254.128 355.08C256.235 355.08 257.768 354.733 258.728 354.04C259.688 353.32 260.168 352.4 260.168 351.28C260.168 350.347 259.821 349.613 259.128 349.08C258.461 348.547 257.301 348.107 255.648 347.76L251.248 346.84C248.715 346.307 246.821 345.413 245.568 344.16C244.341 342.88 243.728 341.2 243.728 339.12C243.728 337.813 243.995 336.627 244.528 335.56C245.061 334.493 245.808 333.573 246.768 332.8C247.755 332.027 248.915 331.44 250.248 331.04C251.608 330.613 253.101 330.4 254.728 330.4C256.328 330.4 257.848 330.6 259.288 331C260.728 331.4 262.021 331.987 263.168 332.76C263.595 333.053 263.875 333.413 264.008 333.84C264.168 334.267 264.208 334.693 264.128 335.12C264.048 335.52 263.861 335.867 263.568 336.16C263.275 336.453 262.901 336.627 262.448 336.68C262.021 336.733 261.528 336.6 260.968 336.28C259.981 335.72 258.981 335.32 257.968 335.08C256.955 334.84 255.861 334.72 254.688 334.72C253.461 334.72 252.408 334.893 251.528 335.24C250.648 335.587 249.968 336.08 249.488 336.72C249.035 337.333 248.808 338.067 248.808 338.92C248.808 339.88 249.128 340.653 249.768 341.24C250.408 341.8 251.501 342.24 253.048 342.56L257.408 343.48C260.048 344.04 262.008 344.92 263.288 346.12C264.595 347.32 265.248 348.92 265.248 350.92C265.248 352.2 264.981 353.36 264.448 354.4C263.941 355.44 263.195 356.333 262.208 357.08C261.248 357.827 260.088 358.4 258.728 358.8C257.368 359.2 255.835 359.4 254.128 359.4ZM269.727 359.32C269.087 359.32 268.567 359.173 268.167 358.88C267.794 358.587 267.567 358.2 267.487 357.72C267.407 357.213 267.501 356.653 267.767 356.04L278.327 332.64C278.674 331.867 279.087 331.32 279.567 331C280.074 330.653 280.647 330.48 281.287 330.48C281.901 330.48 282.447 330.653 282.927 331C283.434 331.32 283.861 331.867 284.207 332.64L294.807 356.04C295.101 356.653 295.207 357.213 295.127 357.72C295.047 358.227 294.821 358.627 294.447 358.92C294.074 359.187 293.581 359.32 292.967 359.32C292.221 359.32 291.634 359.147 291.207 358.8C290.807 358.427 290.447 357.867 290.127 357.12L287.527 351.08L289.687 352.48H272.807L274.967 351.08L272.407 357.12C272.061 357.893 271.701 358.453 271.327 358.8C270.954 359.147 270.421 359.32 269.727 359.32ZM281.207 336.36L275.607 349.68L274.567 348.4H287.927L286.927 349.68L281.287 336.36H281.207Z" fill="black"/>
</svg>
